HIERARCHY
ROOT pelvis
{
  OFFSET 0 100 0
  CHANNELS 6 Xposition Yposition Zposition Zrotation Xrotation Yrotation
  JOINT pelvis_right_femur
  {
    OFFSET -10.78128 -3.44521 -0.5502486
    CHANNELS 3 Zrotation Xrotation Yrotation
    JOINT right_femur_tibia
    {
      OFFSET -0.8047443 -44.0398 -0.1307829
      CHANNELS 3 Zrotation Xrotation Yrotation
      JOINT right_tibia_foot
      {
        OFFSET 3.006224 -47.83518 -5
        CHANNELS 3 Zrotation Xrotation Yrotation
        End Site
        {
          OFFSET 0 -5 15
        }
      }
    }
  }
  JOINT pelvis_left_femur
  {
    OFFSET 10.78128 -3.44521 -0.5502486
    CHANNELS 3 Zrotation Xrotation Yrotation
    JOINT left_femur_tibia
    {
      OFFSET 0.8047443 -44.0398 -0.1307829
      CHANNELS 3 Zrotation Xrotation Yrotation
      JOINT left_tibia_foot
      {
        OFFSET -4.370144 -48.10324 -4.275266
        CHANNELS 3 Zrotation Xrotation Yrotation
        End Site
        {
          OFFSET 0 -5 15
        }
      }
    }
  }
  JOINT pelvis_spine1
  {
    OFFSET 0 6.468898 -3.129235
    CHANNELS 3 Zrotation Xrotation Yrotation
    JOINT spine1
    {
      OFFSET 0 23.15396 4.99043
      CHANNELS 3 Zrotation Xrotation Yrotation
      JOINT spine2
      {
        OFFSET 0 20.79997 -5.064912
        CHANNELS 3 Zrotation Xrotation Yrotation
        JOINT neck
        {
          OFFSET 0 14.38658 9.616178
          CHANNELS 3 Zrotation Xrotation Yrotation
          End Site
          {
            OFFSET 0 20 0
          }
        }
      }
      JOINT right_manubrium
      {
        OFFSET -5.722621 16.35077 3.967754
        CHANNELS 3 Zrotation Xrotation Yrotation
        JOINT right_clavicle
        {
          OFFSET -13.16364 1.694482 -4.693211
          CHANNELS 3 Zrotation Xrotation Yrotation
          JOINT right_humerus
          {
            OFFSET -28.5034 -0.3100689 -2.792744
            CHANNELS 3 Zrotation Xrotation Yrotation
            JOINT right_radius
            {
              OFFSET -25.15693 0.02248979 -1.271978
              CHANNELS 3 Zrotation Xrotation Yrotation
              End Site
              {
                OFFSET -15 0 0
              }
            }
          }
        }
      }
      JOINT left_manubrium
      {
        OFFSET 5.722621 16.35077 3.967754
        CHANNELS 3 Zrotation Xrotation Yrotation
        JOINT left_clavicle
        {
          OFFSET 13.16364 1.694482 -4.693211
          CHANNELS 3 Zrotation Xrotation Yrotation
          JOINT left_humerus
          {
            OFFSET 29.39168 -1.063119 -2.237045
            CHANNELS 3 Zrotation Xrotation Yrotation
            JOINT left_radius
            {
              OFFSET 24.59957 -0.9528479 0.9047498
              CHANNELS 3 Zrotation Xrotation Yrotation
              End Site
              {
                OFFSET 15 -0 -0
              }
            }
          }
        }
      }
    }
  }
}
MOTION
Frames: 17
Frame Time: 0.0416666666667
0 103.5113 0 2.668014 0.1213476 0.1244131 3.343638 -16.08063 11.77989 -0 37.7306 -0 -2.33186 -19.756 -2.934795 -9.132464 10.05307 -23.28452 -0 4.259425 -0 20.66493 -9.644927 29.97427 -2.241605 -2.23727 4.615461 2.728551 10.46249 -7.44458 1.229039 21.34341 6.706508 3.04343 -25.49772 9.312594 5.584628 -18.81198 11.52637 86.49865 35.97045 -19.10866 -0 0 13.19241 -9.045966 8.595992 5.814555 5.837627 -20.6181 -1.758288 -91.38964 21.83495 20.02303 0 0 -16.22143 12.50162 12.59646 -0.6340851
0.4641505 103.3706 1.676637 2.227338 0.9131318 0.2682757 4.518044 -18.9083 11.71569 -0 35.96835 -0 -2.813206 -17.90044 -2.337532 -9.062903 9.92215 -22.64992 -0 4.670779 -0 22.07464 -9.687433 30.12523 -2.230137 -2.154562 4.381892 3.014088 10.47078 -7.675487 1.262047 21.1532 6.793191 2.997196 -25.87656 9.586235 5.626539 -18.63975 11.51573 87.07677 36.19135 -20.04581 -0 0 12.56491 -8.061194 8.600423 5.268639 5.967999 -20.69499 -1.987086 -90.84469 21.68511 19.35211 0 0 -17.82549 13.17405 12.12434 -1.341236
0.8216362 103.1036 3.590354 1.503087 1.43519 0.405521 4.88677 -21.72409 9.640075 -0 31.95259 -0 -4.385145 -15.12812 -2.091133 -8.429498 10.69071 -22.04343 -0 4.848881 -0 17.7515 -13.64253 28.7574 -2.100544 -2.085492 4.461085 2.962067 10.47914 -7.669741 1.29679 21.11425 6.763265 2.969463 -25.84921 9.578697 5.574585 -18.62293 11.47684 87.27022 36.32177 -20.2616 -0 0 12.42579 -7.902226 8.655163 5.240172 5.894468 -20.73547 -2.027913 -90.8353 22.26557 19.48882 0 0 -18.49939 12.66002 12.04542 -0.4226935
1.11117 102.7853 5.677648 0.8787654 2.057684 0.5425101 5.500628 -24.2469 9.007848 -0 29.55577 -0 -5.210584 -13.38923 -2.106706 -7.961009 11.14457 -21.60018 -0 5.198992 -0 15.13515 -16.13004 27.90278 -2.002151 -2.059292 4.518084 2.943496 10.46209 -7.696598 1.328056 21.05799 6.760753 2.948781 -25.90124 9.624076 5.539227 -18.6289 11.43155 87.47383 36.43734 -20.53641 -0 0 12.35158 -7.632521 8.695078 5.102653 5.886428 -20.79034 -2.038172 -90.87337 22.76867 19.6299 0 0 -19.12634 12.31259 12.03547 0.2530649
1.360565 102.3962 8.043548 0.2963965 2.763614 0.7278983 6.220454 -27.14298 8.440801 -0 26.72465 -0 -5.84456 -11.34826 -1.958521 -7.538529 11.58174 -20.87937 -0 5.778988 -0 13.2728 -18.0697 26.82092 -1.888144 -1.999486 4.554852 2.934201 10.46309 -7.730282 1.351301 20.99125 6.76642 2.937848 -25.93333 9.651092 5.499261 -18.60023 11.39547 87.7337 36.56284 -20.87858 -0 0 12.16665 -7.387039 8.740205 4.996502 5.867311 -20.86314 -2.103722 -90.81476 23.24157 19.67283 0 0 -19.91529 11.96308 11.90925 0.9459905
1.584614 101.9462 10.76279 -0.2480411 3.478853 0.9964662 6.970666 -29.99559 7.966047 -0 23.86127 -0 -6.360777 -9.266852 -1.707168 -7.145161 12.06369 -20.09442 -0 6.678414 -0 11.78083 -19.53641 25.6395 -1.771082 -1.936424 4.581245 2.931921 10.4643 -7.77306 1.368459 20.91615 6.784403 2.935914 -25.97007 9.678589 5.458691 -18.56329 11.36124 88.02312 36.6856 -21.26449 -0 0 11.95265 -7.142119 8.785771 4.886027 5.859348 -20.95206 -2.183892 -90.73324 23.69555 19.68551 0 0 -20.75532 11.63116 11.75284 1.62053
1.794862 101.4557 13.94529 -0.7889068 4.107339 1.383 7.680721 -32.65443 7.329226 -0 20.94108 -0 -6.902435 -6.970867 -1.274164 -6.717473 12.685 -19.22557 -0 8.125376 -0 10.2064 -20.61306 24.145 -1.648977 -1.86546 4.608302 2.921032 10.47487 -7.814142 1.374083 20.84254 6.808385 2.947126 -25.98007 9.678325 5.414309 -18.5208 11.33407 88.31778 36.78981 -21.65069 -0 0 11.72071 -6.976326 8.835156 4.819452 5.847057 -21.05856 -2.27991 -90.63413 24.13174 19.68226 0 0 -21.58426 11.26431 11.56039 2.335381
2.00534 100.9654 17.716 -1.346318 4.513072 1.91063 8.254537 -34.77483 6.37556 -0 18.19591 -0 -7.523427 -4.466613 -0.6530951 -6.19216 13.47839 -18.25329 -0 10.40174 -0 8.091929 -21.22774 22.09256 -1.5252 -1.794248 4.647144 2.891966 10.49518 -7.849789 1.366413 20.77603 6.835444 2.973225 -25.95716 9.64158 5.366874 -18.48575 11.3137 88.59509 36.86302 -22.00829 -0 0 11.50931 -6.917743 8.889317 4.804562 5.829884 -21.18376 -2.379123 -90.5501 24.56427 19.69944 0 0 -22.33874 10.83565 11.36033 3.118233
2.236146 100.5412 22.20439 -1.911374 4.557568 2.573533 8.584618 -35.86604 5.029487 -0 15.88993 -0 -8.163439 -1.903408 0.04819567 -5.518111 14.38286 -17.06671 -0 13.87882 -0 5.028145 -21.13332 19.1856 -1.404059 -1.724093 4.707798 2.834563 10.53188 -7.874602 1.341342 20.72394 6.860357 3.016731 -25.8855 9.549674 5.317309 -18.46766 11.30363 88.82687 36.89007 -22.29882 -0 0 11.34675 -7.018016 8.950966 4.866242 5.800535 -21.32793 -2.477301 -90.49722 24.99172 19.75751 0 0 -22.95695 10.31497 11.16033 3.994958
2.508074 100.2863 27.49444 -2.424274 4.170834 3.302619 8.640231 -35.23205 3.535625 -0 14.37488 -0 -8.590229 0.2335693 0.4643982 -4.699331 15.11771 -15.48949 -0 18.99281 -0 0.9669797 -19.82288 15.35989 -1.293643 -1.657115 4.799689 2.740699 10.59011 -7.88253 1.295808 20.69366 6.876776 3.07834 -25.75211 9.386794 5.267714 -18.4778 11.30724 88.97629 36.85849 -22.4744 -0 0 11.26774 -7.324557 9.023778 5.026666 5.752809 -21.48628 -2.56827 -90.48986 25.40328 19.87414 0 0 -23.37459 9.684851 10.96912 4.970022
2.817848 100.3512 33.52231 -2.795982 3.463089 3.924681 8.580408 -32.18155 2.660727 -0 14.07283 -0 -8.544147 1.045515 -0.02950707 -3.829386 15.0296 -13.42617 -0 26.16149 -0 -3.240687 -16.66285 11.28969 -1.206846 -1.593517 4.93085 2.604321 10.67402 -7.8637 1.227883 20.6939 6.875026 3.155341 -25.54044 9.13698 5.220189 -18.52624 11.32947 88.99111 36.75915 -22.46488 -0 0 11.30857 -7.892927 9.113778 5.317072 5.677448 -21.6441 -2.645632 -90.52932 25.76479 20.05379 0 0 -23.52055 8.94418 10.78749 6.017791
3.103043 100.9007 39.95791 -3.003185 2.700932 4.160872 8.632603 -26.86301 3.140694 -0 15.16668 -0 -8.38654 -0.2835068 -1.650775 -3.055028 13.18794 -11.28233 -0 35.49266 -0 -5.805679 -11.68161 8.564064 -1.161989 -1.532921 5.107908 2.422617 10.78257 -7.801474 1.139825 20.73481 6.840844 3.238304 -25.23232 8.790881 5.175725 -18.62174 11.37524 88.79943 36.58959 -22.1696 -0 0 11.51072 -8.774506 9.227149 5.773933 5.562315 -21.7695 -2.698892 -90.60528 26.01504 20.28994 0 0 -23.31268 8.119329 10.6147 7.068508
3.28799 101.9908 46.28842 -3.095648 1.843587 3.784178 8.77404 -21.17532 4.04393 -0 16.71916 -0 -9.271373 -2.954083 -3.019818 -2.518302 9.210908 -10.07195 -0 46.30697 -0 -5.978598 -6.655172 8.227146 -1.180179 -1.474864 5.335242 2.196908 10.9053 -7.669799 1.041289 20.82725 6.755532 3.308844 -24.80963 8.353568 5.131977 -18.76955 11.44723 88.31396 36.35417 -21.45823 -0 0 11.91786 -9.997297 9.363058 6.432711 5.39301 -21.8084 -2.712461 -90.69894 26.06772 20.56841 0 0 -22.66056 7.271865 10.4534 8.003113
3.448261 103.4614 52.221 -2.815009 0.4185965 2.925909 8.579776 -16.60751 3.56451 -0 16.73954 -0 -10.48192 -4.798565 -2.521082 -2.417322 3.658786 -9.76196 -0 56.71783 -0 -5.687283 -4.076739 9.009962 -1.276168 -1.421033 5.613156 1.931862 11.01669 -7.435605 0.9508798 20.97902 6.602605 3.343618 -24.26127 7.853897 5.080594 -18.96894 11.54077 87.45913 36.05987 -20.2041 -0 0 12.56692 -11.5323 9.501164 7.308032 5.161253 -21.69297 -2.667528 -90.79968 25.84163 20.88122 0 0 -21.49149 6.488915 10.32018 8.681541
3.70888 104.999 57.79769 -1.749131 -1.244828 2.042017 7.487463 -11.55831 2.675693 -0 14.53754 -0 -9.691378 -5.714741 -1.41465 -2.617963 -3.159468 -8.850974 -0 63.45261 -0 -5.912962 -3.902195 9.554759 -1.444179 -1.377252 5.937418 1.630511 11.07501 -7.071667 0.8894204 21.18738 6.383211 3.330149 -23.59219 7.341051 5.005567 -19.21371 11.63908 86.22117 35.71023 -18.35733 -0 0 13.47366 -13.28514 9.601657 8.37386 4.880938 -21.37579 -2.549624 -90.92731 25.32601 21.24568 0 0 -19.81193 5.830536 10.24915 9.03509
4.002899 106.2442 63.12043 -0.3319762 -2.620784 1.39042 5.877 -5.322173 2.524045 -0 11.5151 -0 -7.770188 -7.035246 -1.114971 -2.463198 -10.22359 -7.377728 -0 63.98075 -0 -5.841326 -4.459102 10.59304 -1.653122 -1.352891 6.306288 1.289684 11.03309 -6.574817 0.8667485 21.43128 6.126721 3.280863 -22.83208 6.863853 4.885503 -19.50273 11.71579 84.67568 35.31304 -16.00008 -0 0 14.63103 -15.14331 9.638743 9.566731 4.59556 -20.8688 -2.354423 -91.13212 24.63062 21.71309 0 0 -17.77222 5.267782 10.27449 9.161155
4.246902 106.9114 68.27069 0.7013368 -3.82757 0.9096922 4.622032 0.9299669 2.641856 -0 9.126258 -0 -6.302629 -9.097839 -1.238349 -1.617811 -16.24814 -6.031543 -0 58.75843 -0 -5.520118 -5.060781 12.51216 -1.863593 -1.357961 6.723671 0.9104685 10.86185 -5.974673 0.8778057 21.6725 5.87602 3.220047 -22.04116 6.456013 4.703184 -19.8463 11.74819 82.95418 34.89593 -13.31914 -0 0 16.01139 -17.01218 9.628781 10.807 4.357612 -20.23774 -2.08669 -91.4521 23.92941 22.33631 0 0 -15.64764 4.719509 10.40028 9.256166
